<?xml version="1.0" encoding="UTF-8" standalone="no"?>
<!DOCTYPE svg PUBLIC "-//W3C//DTD SVG 1.1//EN" "http://www.w3.org/Graphics/SVG/1.1/DTD/svg11.dtd">
<svg width="100%" height="100%" viewBox="0 0 1241 875" version="1.1" xmlns="http://www.w3.org/2000/svg" xmlns:xlink="http://www.w3.org/1999/xlink" xml:space="preserve" xmlns:serif="http://www.serif.com/" style="fill-rule:evenodd;clip-rule:evenodd;stroke-linecap:round;stroke-linejoin:round;stroke-miterlimit:1.5;">
    <g transform="matrix(4.16667,0,0,4.16667,352.643,556.257)">
        <g transform="matrix(1,0,0,1,-24,-24)">
            <path d="M16.5,42L16.5,38L7,38C6.2,38 5.5,37.7 4.9,37.1C4.3,36.5 4,35.8 4,35L4,9C4,8.2 4.3,7.5 4.9,6.9C5.5,6.3 6.2,6 7,6L41,6C41.8,6 42.5,6.3 43.1,6.9C43.7,7.5 44,8.2 44,9L44,35C44,35.8 43.7,36.5 43.1,37.1C42.5,37.7 41.8,38 41,38L31.5,38L31.5,42L16.5,42ZM7,35L41,35L41,9L7,9L7,35ZM7,35L7,9L7,35Z" style="fill-rule:nonzero;"/>
        </g>
    </g>
    <g transform="matrix(4.16667,0,0,4.16667,620.395,589.592)">
        <g transform="matrix(1,0,0,1,-24,-24)">
            <path d="M13,46C12.2,46 11.5,45.7 10.9,45.1C10.3,44.5 10,43.8 10,43L10,5C10,4.2 10.3,3.5 10.9,2.9C11.5,2.3 12.2,2 13,2L35,2C35.8,2 36.5,2.3 37.1,2.9C37.7,3.5 38,4.2 38,5L38,43C38,43.8 37.7,44.5 37.1,45.1C36.5,45.7 35.8,46 35,46L13,46ZM13,41.5L13,43L35,43L35,41.5L13,41.5ZM13,38.5L35,38.5L35,9.5L13,9.5L13,38.5ZM13,6.5L35,6.5L35,5L13,5L13,6.5ZM13,6.5L13,5L13,6.5ZM13,41.5L13,43L13,41.5Z" style="fill-rule:nonzero;"/>
        </g>
    </g>
    <g transform="matrix(4.16667,0,0,4.16667,884.285,537.008)">
        <g transform="matrix(1,0,0,1,-24,-24)">
            <path d="M18.85,29.15L18.85,18.9L29.1,18.9L29.1,29.15L18.85,29.15ZM21.85,26.15L26.1,26.15L26.1,21.9L21.85,21.9L21.85,26.15ZM18,42L18,38L13,38C12.2,38 11.5,37.7 10.9,37.1C10.3,36.5 10,35.8 10,35L10,30L6,30L6,27L10,27L10,20.8L6,20.8L6,17.8L10,17.8L10,12.8C10,12 10.3,11.3 10.9,10.7C11.5,10.1 12.2,9.8 13,9.8L18,9.8L18,6L21,6L21,9.8L27.2,9.8L27.2,6L30.2,6L30.2,9.8L35.2,9.8C36,9.8 36.7,10.1 37.3,10.7C37.9,11.3 38.2,12 38.2,12.8L38.2,17.8L42,17.8L42,20.8L38.2,20.8L38.2,27L42,27L42,30L38.2,30L38.2,35C38.2,35.8 37.9,36.5 37.3,37.1C36.7,37.7 36,38 35.2,38L30.2,38L30.2,42L27.2,42L27.2,38L21,38L21,42L18,42ZM35.2,35L35.2,12.8L13,12.8L13,35L35.2,35Z" style="fill-rule:nonzero;"/>
        </g>
    </g>
    <g id="SH-wg" transform="matrix(7.10879e-17,-1.16095,1.16095,7.10879e-17,454.066,1465.45)">
        <g transform="matrix(0.321809,0,0,0.290277,867.599,57.8116)">
            <path d="M756.002,116.449C756.002,97.136 741.859,81.457 724.439,81.457L457.412,81.457C439.991,81.457 425.848,97.136 425.848,116.449L425.848,450.345C425.848,469.658 439.991,485.338 457.412,485.338L724.439,485.338C741.859,485.338 756.002,469.658 756.002,450.345L756.002,116.449Z" style="fill:white;stroke:black;stroke-width:29.28px;"/>
        </g>
        <g transform="matrix(1.18007,0,0,1.15244,-192.49,-31.8124)">
            <g transform="matrix(1.98875e-17,0.324788,-0.28148,1.72357e-17,1128.81,154.862)">
                <path d="M222.604,229.78C222.604,220.645 215.188,213.229 206.053,213.229L155.575,213.229C146.44,213.229 139.023,220.645 139.023,229.78L139.023,262.882C139.023,272.017 146.44,279.433 155.575,279.433L206.053,279.433C215.188,279.433 222.604,272.017 222.604,262.882L222.604,229.78Z" style="fill:white;stroke:black;stroke-width:25.36px;"/>
            </g>
            <g transform="matrix(2.77002,3.41432e-32,0,0.20255,-1804.43,153.655)">
                <rect x="1027.4" y="241.736" width="12.975" height="17.864" style="fill:white;stroke:black;stroke-width:3.87px;"/>
            </g>
        </g>
    </g>
    <g transform="matrix(1,0,0,1,13.3142,-156.672)">
        <path d="M514.023,486.981L431.419,599.758" style="fill:none;stroke:black;stroke-width:10.42px;"/>
    </g>
    <g transform="matrix(1,0,0,1,21.8531,-156.202)">
        <path d="M598.542,494.769L599.854,620.098" style="fill:none;stroke:black;stroke-width:10.42px;"/>
    </g>
    <g transform="matrix(0.971226,-0.0553472,-0.0545143,0.886986,111.109,-97.4757)">
        <path d="M656.708,523.268L769.363,650.592" style="fill:none;stroke:black;stroke-width:11.9px;"/>
    </g>
    <g transform="matrix(1,0,0,1,4.86803,0)">
        <path d="M573.937,368.638L563.327,366.924L583.737,338.566L594.177,371.909L584.243,370.303C582.311,390.925 582.681,411.543 585.157,432.162L595.104,430.368L585.273,463.895L564.35,435.914L574.889,434.014C572.228,412.222 571.843,390.429 573.937,368.638Z" style="fill:rgb(255,212,22);stroke:black;stroke-width:1px;stroke-linecap:butt;stroke-miterlimit:2;"/>
    </g>
</svg>
