<?xml version="1.0" encoding="UTF-8" standalone="no"?>
<!DOCTYPE svg PUBLIC "-//W3C//DTD SVG 1.1//EN" "http://www.w3.org/Graphics/SVG/1.1/DTD/svg11.dtd">
<svg width="100%" height="100%" viewBox="0 0 870 559" version="1.1" xmlns="http://www.w3.org/2000/svg" xmlns:xlink="http://www.w3.org/1999/xlink" xml:space="preserve" xmlns:serif="http://www.serif.com/" style="fill-rule:evenodd;clip-rule:evenodd;stroke-linecap:round;stroke-linejoin:round;stroke-miterlimit:1.5;">
    <g transform="matrix(1,0,0,1,-115.612,-131.362)">
        <g id="SH-wg" transform="matrix(-1,1.22465e-16,-1.22465e-16,-1,1667.36,650.119)">
            <g transform="matrix(0.321809,0,0,0.290277,867.599,57.8116)">
                <path d="M756.002,116.449C756.002,97.136 741.859,81.457 724.439,81.457L457.412,81.457C439.991,81.457 425.848,97.136 425.848,116.449L425.848,450.345C425.848,469.658 439.991,485.338 457.412,485.338L724.439,485.338C741.859,485.338 756.002,469.658 756.002,450.345L756.002,116.449Z" style="fill:rgb(221,221,221);stroke:black;stroke-width:3.26px;"/>
            </g>
            <g transform="matrix(1,0,0,1,-1.70801,-1.3213)">
                <g transform="matrix(1.98875e-17,0.324788,-0.28148,1.72357e-17,1128.81,154.862)">
                    <path d="M222.604,229.78C222.604,220.645 215.188,213.229 206.053,213.229L155.575,213.229C146.44,213.229 139.023,220.645 139.023,229.78L139.023,262.882C139.023,272.017 146.44,279.433 155.575,279.433L206.053,279.433C215.188,279.433 222.604,272.017 222.604,262.882L222.604,229.78Z" style="fill:rgb(175,175,175);stroke:black;stroke-width:3.29px;"/>
                </g>
                <g transform="matrix(2.77002,0,0,0.20255,-1804.43,151.052)">
                    <rect x="1027.4" y="241.736" width="12.975" height="17.864" style="fill:rgb(221,221,221);stroke:black;stroke-width:0.51px;"/>
                </g>
            </g>
            <g transform="matrix(3.00714e-17,0.491103,-0.491103,3.00714e-17,1158.7,-254.059)">
                <g id="Outline" transform="matrix(1.10617,0,0,1.10617,520.432,-80.1054)">
                    <path d="M190.789,171.282C190.789,171.282 190.789,171.282 190.789,171.282C190.789,189.942 175.434,205.298 156.773,205.298L156.773,205.298L156.773,309.235L190.789,309.235C210.486,309.235 226.695,325.443 226.695,345.14L319.293,345.14C319.293,326.48 334.648,311.124 353.309,311.124L353.309,207.187L319.293,207.187C299.596,207.187 283.387,190.979 283.387,171.282L190.789,171.282Z" style="fill:rgb(235,236,239);fill-rule:nonzero;stroke:black;stroke-width:1.15px;stroke-linecap:butt;stroke-linejoin:miter;stroke-miterlimit:4;"/>
                </g>
                <g id="path1166" transform="matrix(0.353986,0,0,0.353986,649.02,57.171)">
                    <path d="M126.642,253.731L126.642,312.783L740.794,312.783L740.794,259.636L634.499,259.636C572.947,259.636 522.298,208.987 522.298,147.436L232.938,147.436C232.938,147.436 232.938,147.436 232.938,147.436C232.938,205.748 184.954,253.731 126.642,253.731L126.642,253.731Z" style="fill:rgb(19,41,75);fill-rule:nonzero;"/>
                </g>
                <g id="path11661" serif:id="path1166" transform="matrix(0.353986,0,0,0.353986,649.02,57.171)">
                    <path d="M740.794,584.429L740.794,525.377L126.642,525.377L126.642,578.523L232.938,578.523C294.489,578.523 345.138,629.173 345.138,690.724L634.499,690.724C634.499,632.412 682.482,584.429 740.794,584.429Z" style="fill:rgb(19,41,75);fill-rule:nonzero;"/>
                </g>
                <g transform="matrix(0.227244,0,0,0.228256,575.629,157.706)">
                    <g id="Pictogram">
                        <g transform="matrix(0.248863,0,0,0.247759,-45.9779,-429.782)">
                            <g id="Ring">
                                <circle cx="3561.1" cy="2580.14" r="506.907" style="fill:white;"/>
                            </g>
                        </g>
                        <g transform="matrix(0.787191,0,0,0.7837,412.794,-418.211)">
                            <path d="M669.685,891.732C668.701,887.697 658.86,884.64 653.15,882.874C639.281,878.586 618.882,879.106 603.543,881.102C562.527,886.441 521.654,910.285 473.622,909.449C438.954,908.846 420.472,894.094 420.472,894.094C434.049,916.355 456.097,936.36 490.226,953.15L553.937,962.011L609.449,947.244L659.055,907.087C659.055,907.087 670.669,895.768 669.685,891.732Z" style="fill:rgb(87,102,127);"/>
                        </g>
                        <g transform="matrix(0.611351,0,0,0.60864,617.48,-1126.32)">
                            <circle cx="207.035" cy="2059.97" r="13.094" style="stroke:black;stroke-width:1px;stroke-linecap:butt;"/>
                        </g>
                        <g transform="matrix(0.739526,0,0,0.736246,438.677,-380.204)">
                            <path d="M545.365,618.65L543.01,618.635C506.159,618.635 470.267,629.801 440.01,650.525C437.569,652.214 435.933,654.834 435.486,657.768C435.039,660.702 435.821,663.69 437.648,666.029C437.637,666.049 437.643,666.055 437.648,666.062C441.185,670.589 447.644,671.561 452.357,668.276C458.525,663.936 465.152,659.856 472.627,656.494C488.357,649.417 507.773,640.701 543.01,640.257L545.086,640.27C632.802,641.381 703.674,712.939 703.674,800.92C703.674,888.901 632.802,960.459 545.086,961.57L543.01,961.583C454.338,961.583 382.347,889.592 382.347,800.92C382.347,776.083 388.105,751.632 399.11,729.468C401.641,724.407 399.792,718.251 394.891,715.421C394.899,715.408 394.899,715.408 394.899,715.407C392.309,713.912 389.213,713.562 386.354,714.442C383.496,715.321 381.132,717.351 379.831,720.044C377.88,723.949 375.832,728.187 374.564,731.252C365.457,753.271 360.725,776.937 360.725,800.92C360.725,901.526 442.405,983.205 543.01,983.205L545.365,983.19C644.885,981.929 725.295,900.741 725.295,800.92C725.295,701.099 644.885,619.91 545.365,618.65Z" style="stroke:black;stroke-width:12.12px;stroke-linecap:butt;stroke-miterlimit:2;"/>
                        </g>
                        <g transform="matrix(0.265935,0,0,0.264756,648.601,-472.248)">
                            <path d="M443.07,2602.12L986.222,2457.73L986.222,2640.74L528.181,2759.67L443.07,2602.12Z" style="fill:white;"/>
                        </g>
                        <g transform="matrix(1.43736,0,0,1.43098,900.543,190.039)">
                            <path d="M0,21.71L-74.991,40.428L-85.266,21.247L0,-0.097L0,21.71ZM-7.765,-11.443L-10.564,-16.693C-16.346,-27.703 -26.814,-33.658 -40.104,-33.658C-44.15,-33.658 -48.456,-33.106 -52.971,-31.978C-68.312,-28.144 -78.384,-19.568 -81.854,-8.099L-70.312,1.704L-70.312,1.379C-70.392,-11.606 -59.227,-17.126 -49.846,-19.471C-46.406,-20.33 -43.129,-20.766 -40.104,-20.766C-31.585,-20.766 -25.486,-17.379 -21.978,-10.699L-21.959,-10.663L-21.94,-10.626L-20.654,-8.216L-104.439,12.757L-81.612,55.368L12.892,31.78L12.892,-16.614L-7.765,-11.443Z" style="fill-rule:nonzero;"/>
                        </g>
                    </g>
                    <g id="Hat-Labs" serif:id="Hat Labs" transform="matrix(0.787191,0,0,0.7837,404.922,-405.671)">
                        <g transform="matrix(3.42468,0,0,3.42468,-4184.72,-2988)">
                            <g transform="matrix(50,0,0,50,1442.32,1139.13)">
                                <path d="M0.1,-0L0.1,-0.698L0.231,-0.698L0.231,-0.108L0.54,-0.108L0.54,-0L0.1,-0Z" style="fill-rule:nonzero;"/>
                            </g>
                            <g transform="matrix(50,0,0,50,1468.82,1139.13)">
                                <path d="M0.49,-0C0.459,-0 0.435,-0.008 0.418,-0.024C0.401,-0.039 0.39,-0.061 0.387,-0.089L0.382,-0.089C0.373,-0.057 0.354,-0.032 0.327,-0.015C0.3,0.003 0.266,0.012 0.226,0.012C0.174,0.012 0.133,-0.002 0.102,-0.029C0.071,-0.056 0.056,-0.094 0.056,-0.143C0.056,-0.247 0.132,-0.299 0.285,-0.299L0.376,-0.299L0.376,-0.333C0.376,-0.366 0.368,-0.39 0.352,-0.407C0.336,-0.424 0.31,-0.432 0.274,-0.432C0.241,-0.432 0.215,-0.426 0.195,-0.413C0.175,-0.4 0.158,-0.384 0.144,-0.364L0.071,-0.426C0.087,-0.455 0.113,-0.479 0.149,-0.499C0.184,-0.518 0.23,-0.528 0.287,-0.528C0.355,-0.528 0.408,-0.512 0.447,-0.481C0.485,-0.449 0.504,-0.402 0.504,-0.339L0.504,-0.096L0.565,-0.096L0.565,-0L0.49,-0ZM0.269,-0.076C0.3,-0.076 0.325,-0.083 0.346,-0.098C0.366,-0.112 0.376,-0.131 0.376,-0.156L0.376,-0.225L0.288,-0.225C0.218,-0.225 0.183,-0.203 0.183,-0.159L0.183,-0.139C0.183,-0.118 0.191,-0.103 0.206,-0.092C0.221,-0.081 0.242,-0.076 0.269,-0.076Z" style="fill-rule:nonzero;"/>
                            </g>
                            <g transform="matrix(50,0,0,50,1497.32,1139.13)">
                                <path d="M0.069,-0.74L0.197,-0.74L0.197,-0.425L0.204,-0.425C0.218,-0.456 0.237,-0.481 0.262,-0.5C0.286,-0.519 0.318,-0.528 0.358,-0.528C0.387,-0.528 0.414,-0.523 0.439,-0.512C0.463,-0.501 0.484,-0.484 0.501,-0.462C0.518,-0.439 0.532,-0.411 0.541,-0.377C0.55,-0.343 0.555,-0.303 0.555,-0.258C0.555,-0.213 0.55,-0.173 0.541,-0.139C0.532,-0.105 0.518,-0.077 0.501,-0.055C0.484,-0.032 0.463,-0.016 0.439,-0.005C0.414,0.007 0.387,0.012 0.358,0.012C0.318,0.012 0.286,0.003 0.262,-0.016C0.237,-0.035 0.218,-0.06 0.204,-0.091L0.197,-0.091L0.197,-0L0.069,-0L0.069,-0.74ZM0.304,-0.09C0.341,-0.09 0.37,-0.101 0.391,-0.124C0.411,-0.147 0.421,-0.178 0.421,-0.217L0.421,-0.299C0.421,-0.338 0.411,-0.369 0.391,-0.392C0.37,-0.415 0.341,-0.426 0.304,-0.426C0.275,-0.426 0.25,-0.419 0.229,-0.405C0.208,-0.39 0.197,-0.368 0.197,-0.339L0.197,-0.177C0.197,-0.148 0.208,-0.126 0.229,-0.112C0.25,-0.097 0.275,-0.09 0.304,-0.09Z" style="fill-rule:nonzero;"/>
                            </g>
                            <g transform="matrix(50,0,0,50,1524.32,1139.13)">
                                <path d="M0.298,0.012C0.241,0.012 0.192,0.003 0.151,-0.015C0.11,-0.032 0.077,-0.056 0.054,-0.086L0.129,-0.154C0.15,-0.131 0.175,-0.113 0.203,-0.1C0.23,-0.087 0.262,-0.081 0.299,-0.081C0.331,-0.081 0.357,-0.086 0.376,-0.097C0.395,-0.108 0.405,-0.124 0.405,-0.146C0.405,-0.165 0.399,-0.177 0.386,-0.184C0.373,-0.191 0.355,-0.196 0.334,-0.199L0.251,-0.212C0.23,-0.215 0.209,-0.22 0.189,-0.227C0.168,-0.233 0.15,-0.242 0.135,-0.253C0.119,-0.264 0.106,-0.279 0.097,-0.297C0.088,-0.314 0.083,-0.336 0.083,-0.361C0.083,-0.415 0.103,-0.456 0.144,-0.485C0.184,-0.514 0.239,-0.528 0.31,-0.528C0.36,-0.528 0.403,-0.521 0.438,-0.507C0.472,-0.493 0.501,-0.473 0.524,-0.448L0.457,-0.374C0.442,-0.39 0.423,-0.404 0.399,-0.417C0.374,-0.429 0.343,-0.435 0.306,-0.435C0.241,-0.435 0.208,-0.415 0.208,-0.374C0.208,-0.355 0.215,-0.343 0.228,-0.336C0.241,-0.329 0.259,-0.323 0.28,-0.32L0.362,-0.307C0.384,-0.304 0.405,-0.299 0.426,-0.293C0.446,-0.286 0.464,-0.277 0.48,-0.266C0.495,-0.255 0.508,-0.24 0.517,-0.223C0.526,-0.206 0.531,-0.184 0.531,-0.159C0.531,-0.106 0.511,-0.064 0.47,-0.034C0.429,-0.003 0.371,0.012 0.298,0.012Z" style="fill-rule:nonzero;"/>
                            </g>
                        </g>
                        <g transform="matrix(3.42468,0,0,3.42468,-4179.07,-3128.46)">
                            <g transform="matrix(50,0,0,50,1442.32,1139.13)">
                                <path d="M0.402,-0.3L0.198,-0.3L0.198,-0L0.067,-0L0.067,-0.698L0.198,-0.698L0.198,-0.408L0.402,-0.408L0.402,-0.698L0.533,-0.698L0.533,-0L0.402,-0L0.402,-0.3Z" style="fill-rule:nonzero;"/>
                            </g>
                            <g transform="matrix(50,0,0,50,1469.32,1139.13)">
                                <path d="M0.49,-0C0.459,-0 0.435,-0.008 0.418,-0.024C0.401,-0.039 0.39,-0.061 0.387,-0.089L0.382,-0.089C0.373,-0.057 0.354,-0.032 0.327,-0.015C0.3,0.003 0.266,0.012 0.226,0.012C0.174,0.012 0.133,-0.002 0.102,-0.029C0.071,-0.056 0.056,-0.094 0.056,-0.143C0.056,-0.247 0.132,-0.299 0.285,-0.299L0.376,-0.299L0.376,-0.333C0.376,-0.366 0.368,-0.39 0.352,-0.407C0.336,-0.424 0.31,-0.432 0.274,-0.432C0.241,-0.432 0.215,-0.426 0.195,-0.413C0.175,-0.4 0.158,-0.384 0.144,-0.364L0.071,-0.426C0.087,-0.455 0.113,-0.479 0.149,-0.499C0.184,-0.518 0.23,-0.528 0.287,-0.528C0.355,-0.528 0.408,-0.512 0.447,-0.481C0.485,-0.449 0.504,-0.402 0.504,-0.339L0.504,-0.096L0.565,-0.096L0.565,-0L0.49,-0ZM0.269,-0.076C0.3,-0.076 0.325,-0.083 0.346,-0.098C0.366,-0.112 0.376,-0.131 0.376,-0.156L0.376,-0.225L0.288,-0.225C0.218,-0.225 0.183,-0.203 0.183,-0.159L0.183,-0.139C0.183,-0.118 0.191,-0.103 0.206,-0.092C0.221,-0.081 0.242,-0.076 0.269,-0.076Z" style="fill-rule:nonzero;"/>
                            </g>
                            <g transform="matrix(50,0,0,50,1492.74,1139.13)">
                                <path d="M0.335,-0C0.286,-0 0.249,-0.013 0.226,-0.039C0.203,-0.065 0.191,-0.099 0.191,-0.14L0.191,-0.415L0.104,-0.415L0.104,-0.516L0.143,-0.516C0.164,-0.516 0.178,-0.52 0.187,-0.529C0.196,-0.537 0.2,-0.552 0.2,-0.573L0.2,-0.698L0.319,-0.698L0.319,-0.516L0.454,-0.516L0.454,-0.415L0.319,-0.415L0.319,-0.101L0.529,-0.101L0.529,-0L0.335,-0Z" style="fill-rule:nonzero;"/>
                            </g>
                        </g>
                    </g>
                </g>
                <g transform="matrix(0.784375,0,0,0.784375,-272.07,-393.176)">
                    <path d="M1303.24,684.089C1308.76,684.089 1311.78,681.197 1311.78,676.859C1311.78,673.53 1309.97,671.108 1305.73,670.335L1303.24,669.898C1300.35,669.427 1299.34,668.351 1299.34,666.434C1299.34,664.147 1300.85,662.936 1303.61,662.936C1306.2,662.936 1307.91,663.979 1309.19,665.56L1311.55,663.205C1309.93,661.087 1307.31,659.809 1303.61,659.809C1298.63,659.809 1295.54,662.197 1295.54,666.602C1295.54,669.729 1297.12,672.386 1301.56,673.126L1304.11,673.53C1306.94,674 1307.98,675.043 1307.98,677.061C1307.98,679.549 1306.33,680.962 1303.38,680.962C1300.85,680.962 1298.87,679.953 1297.09,677.834L1294.66,680.154C1296.45,682.509 1299.17,684.089 1303.24,684.089Z" style="fill:white;fill-rule:nonzero;"/>
                    <path d="M1327.52,683.686L1331.29,683.686L1331.29,660.212L1327.52,660.212L1327.52,670.2L1319.72,670.2L1319.72,660.212L1315.95,660.212L1315.95,683.686L1319.72,683.686L1319.72,673.361L1327.52,673.361L1327.52,683.686Z" style="fill:white;fill-rule:nonzero;"/>
                    <rect x="1338.72" y="671.613" width="10.156" height="3.666" style="fill:white;fill-rule:nonzero;"/>
                    <path d="M1356.98,683.686L1361.49,683.686L1363.84,670.234L1364.14,670.234L1366.46,683.686L1370.97,683.686L1373.39,666.333L1370.4,666.333L1368.68,680.928L1368.38,680.928L1365.82,666.333L1362.26,666.333L1359.67,680.928L1359.37,680.928L1357.68,666.333L1354.56,666.333L1356.98,683.686Z" style="fill:white;fill-rule:nonzero;"/>
                    <path d="M1393.23,685.569C1393.23,682.71 1391.31,680.76 1386.64,680.76L1382.74,680.76C1381.23,680.76 1380.05,680.625 1380.05,679.549C1380.05,678.608 1381.06,678.069 1381.87,677.868C1382.54,678.002 1383.24,678.069 1384.02,678.069C1388.29,678.069 1391.08,675.715 1391.08,672.016C1391.08,669.931 1390.24,668.317 1388.73,667.275L1388.73,666.467L1392.76,666.467L1392.76,663.575L1389.6,663.575C1388.05,663.575 1387.28,664.584 1387.28,665.929L1387.28,666.501C1386.34,666.131 1385.23,665.929 1384.02,665.929C1379.75,665.929 1376.95,668.317 1376.95,672.016C1376.95,674.505 1378.2,676.354 1380.28,677.33L1380.28,677.498C1378.47,677.935 1377.16,678.708 1377.16,680.424C1377.16,681.735 1377.9,682.509 1379.07,682.946L1379.07,683.282C1377.16,683.786 1376.05,684.762 1376.05,686.645C1376.05,689.234 1378.13,690.815 1384.12,690.815C1390.24,690.815 1393.23,689.133 1393.23,685.569ZM1389.8,685.804C1389.8,687.385 1388.29,688.225 1385.53,688.225L1382.81,688.225C1380.25,688.225 1379.24,687.149 1379.24,685.838C1379.24,684.93 1379.68,684.291 1380.52,683.887L1386.54,683.887C1388.99,683.887 1389.8,684.627 1389.8,685.804ZM1384.02,675.547C1381.66,675.547 1380.55,674.303 1380.55,672.453L1380.55,671.545C1380.55,669.696 1381.66,668.452 1384.02,668.452C1386.37,668.452 1387.48,669.696 1387.48,671.545L1387.48,672.453C1387.48,674.303 1386.37,675.547 1384.02,675.547Z" style="fill:white;fill-rule:nonzero;"/>
                </g>
            </g>
        </g>
        <g transform="matrix(1,0,0,1,27.1697,39.6341)">
            <g id="Conx--female" serif:id="Conx, female" transform="matrix(1.98875e-17,0.324788,-0.324788,1.98875e-17,661.921,319.537)">
                <g transform="matrix(1,0,0,1,-140.936,-250.193)">
                    <path d="M364.753,478.983C364.753,469.721 357.234,462.202 347.972,462.202L213.007,462.202C203.746,462.202 196.227,469.721 196.227,478.983L196.227,512.543C196.227,521.804 203.746,529.323 213.007,529.323L347.972,529.323C357.234,529.323 364.753,521.804 364.753,512.543L364.753,478.983Z" style="fill:rgb(79,79,79);stroke:black;stroke-width:3.08px;"/>
                </g>
                <path d="M262.215,203.991C262.215,196.402 256.054,190.241 248.465,190.241L220.964,190.241C213.375,190.241 207.214,196.402 207.214,203.991L207.214,287.148C207.214,294.737 213.375,300.899 220.964,300.899L248.465,300.899C256.054,300.899 262.215,294.737 262.215,287.148L262.215,203.991Z" style="fill:rgb(235,235,235);stroke:black;stroke-width:3.08px;"/>
            </g>
            <g id="Conx--male" serif:id="Conx, male" transform="matrix(-5.96625e-17,-0.324788,0.324788,-5.96625e-17,423.116,287.416)">
                <g transform="matrix(1,0,0,1,-140.936,-250.193)">
                    <path d="M364.753,478.983C364.753,469.721 357.234,462.202 347.972,462.202L213.007,462.202C203.746,462.202 196.227,469.721 196.227,478.983L196.227,512.543C196.227,521.804 203.746,529.323 213.007,529.323L347.972,529.323C357.234,529.323 364.753,521.804 364.753,512.543L364.753,478.983Z" style="fill:rgb(79,79,79);stroke:black;stroke-width:3.08px;"/>
                </g>
                <g transform="matrix(1,0,0,0.86666,108.09,32.0847)">
                    <path d="M222.604,229.78C222.604,220.645 215.188,213.229 206.053,213.229L155.575,213.229C146.44,213.229 139.023,220.645 139.023,229.78L139.023,262.882C139.023,272.017 146.44,279.433 155.575,279.433L206.053,279.433C215.188,279.433 222.604,272.017 222.604,262.882L222.604,229.78Z" style="fill:rgb(175,175,175);stroke:black;stroke-width:3.29px;"/>
                </g>
                <path d="M262.215,203.991C262.215,196.402 256.054,190.241 248.465,190.241L220.964,190.241C213.375,190.241 207.214,196.402 207.214,203.991L207.214,287.148C207.214,294.737 213.375,300.899 220.964,300.899L248.465,300.899C256.054,300.899 262.215,294.737 262.215,287.148L262.215,203.991Z" style="fill:rgb(235,235,235);stroke:black;stroke-width:3.08px;"/>
            </g>
            <g transform="matrix(-1,1.22465e-16,-1.22465e-16,-1,654.178,570.329)">
                <path d="M151.304,300.87C151.304,235.405 70.906,293.876 72.015,232.834" style="fill:none;stroke:black;stroke-width:10.42px;stroke-linecap:butt;"/>
            </g>
        </g>
        <g transform="matrix(1,0,0,1,81.894,-1.09864)">
            <g id="Conx--female1" serif:id="Conx, female" transform="matrix(1.98875e-17,0.324788,-0.324788,1.98875e-17,291.781,345.988)">
                <g transform="matrix(1,0,0,1,-140.936,-250.193)">
                    <path d="M364.753,478.983C364.753,469.721 357.234,462.202 347.972,462.202L213.007,462.202C203.746,462.202 196.227,469.721 196.227,478.983L196.227,512.543C196.227,521.804 203.746,529.323 213.007,529.323L347.972,529.323C357.234,529.323 364.753,521.804 364.753,512.543L364.753,478.983Z" style="fill:rgb(79,79,79);stroke:black;stroke-width:3.08px;"/>
                </g>
                <path d="M262.215,203.991C262.215,196.402 256.054,190.241 248.465,190.241L220.964,190.241C213.375,190.241 207.214,196.402 207.214,203.991L207.214,287.148C207.214,294.737 213.375,300.899 220.964,300.899L248.465,300.899C256.054,300.899 262.215,294.737 262.215,287.148L262.215,203.991Z" style="fill:rgb(235,235,235);stroke:black;stroke-width:3.08px;"/>
            </g>
            <g transform="matrix(1,0,0,1,-50.2362,-266.968)">
                <path d="M262.259,577.158L262.259,630.913" style="fill:none;stroke:black;stroke-width:10.42px;stroke-linecap:butt;"/>
            </g>
            <g id="Conx--male1" serif:id="Conx, male" transform="matrix(1.98875e-17,-0.324788,0.324788,1.98875e-17,132.265,328.148)">
                <g transform="matrix(1,0,0,1,-140.936,-250.193)">
                    <path d="M364.753,478.983C364.753,469.721 357.234,462.202 347.972,462.202L213.007,462.202C203.746,462.202 196.227,469.721 196.227,478.983L196.227,512.543C196.227,521.804 203.746,529.323 213.007,529.323L347.972,529.323C357.234,529.323 364.753,521.804 364.753,512.543L364.753,478.983Z" style="fill:rgb(79,79,79);stroke:black;stroke-width:3.08px;"/>
                </g>
                <g transform="matrix(1,0,0,0.86666,108.09,32.0847)">
                    <path d="M222.604,229.78C222.604,220.645 215.188,213.229 206.053,213.229L155.575,213.229C146.44,213.229 139.023,220.645 139.023,229.78L139.023,262.882C139.023,272.017 146.44,279.433 155.575,279.433L206.053,279.433C215.188,279.433 222.604,272.017 222.604,262.882L222.604,229.78Z" style="fill:rgb(175,175,175);stroke:black;stroke-width:3.29px;"/>
                </g>
                <path d="M262.215,203.991C262.215,196.402 256.054,190.241 248.465,190.241L220.964,190.241C213.375,190.241 207.214,196.402 207.214,203.991L207.214,287.148C207.214,294.737 213.375,300.899 220.964,300.899L248.465,300.899C256.054,300.899 262.215,294.737 262.215,287.148L262.215,203.991Z" style="fill:rgb(235,235,235);stroke:black;stroke-width:3.08px;"/>
            </g>
        </g>
        <g transform="matrix(1,0,0,1,55.2466,-1.17871)">
            <g id="Conx--female2" serif:id="Conx, female" transform="matrix(1.98875e-17,0.324788,-0.324788,1.98875e-17,397.24,346.068)">
                <g transform="matrix(1,0,0,1,-140.936,-250.193)">
                    <path d="M364.753,478.983C364.753,469.721 357.234,462.202 347.972,462.202L213.007,462.202C203.746,462.202 196.227,469.721 196.227,478.983L196.227,512.543C196.227,521.804 203.746,529.323 213.007,529.323L347.972,529.323C357.234,529.323 364.753,521.804 364.753,512.543L364.753,478.983Z" style="fill:rgb(79,79,79);stroke:black;stroke-width:3.08px;"/>
                </g>
                <path d="M262.215,203.991C262.215,196.402 256.054,190.241 248.465,190.241L220.964,190.241C213.375,190.241 207.214,196.402 207.214,203.991L207.214,287.148C207.214,294.737 213.375,300.899 220.964,300.899L248.465,300.899C256.054,300.899 262.215,294.737 262.215,287.148L262.215,203.991Z" style="fill:rgb(235,235,235);stroke:black;stroke-width:3.08px;"/>
            </g>
            <g transform="matrix(1,0,0,1,55.2232,-266.888)">
                <path d="M262.259,577.158L262.259,630.913" style="fill:none;stroke:black;stroke-width:10.42px;stroke-linecap:butt;"/>
            </g>
            <g id="Conx--male2" serif:id="Conx, male" transform="matrix(1.98875e-17,-0.324788,0.324788,1.98875e-17,237.724,328.229)">
                <g transform="matrix(1,0,0,1,-140.936,-250.193)">
                    <path d="M364.753,478.983C364.753,469.721 357.234,462.202 347.972,462.202L213.007,462.202C203.746,462.202 196.227,469.721 196.227,478.983L196.227,512.543C196.227,521.804 203.746,529.323 213.007,529.323L347.972,529.323C357.234,529.323 364.753,521.804 364.753,512.543L364.753,478.983Z" style="fill:rgb(79,79,79);stroke:black;stroke-width:3.08px;"/>
                </g>
                <g transform="matrix(1,0,0,0.86666,108.09,32.0847)">
                    <path d="M222.604,229.78C222.604,220.645 215.188,213.229 206.053,213.229L155.575,213.229C146.44,213.229 139.023,220.645 139.023,229.78L139.023,262.882C139.023,272.017 146.44,279.433 155.575,279.433L206.053,279.433C215.188,279.433 222.604,272.017 222.604,262.882L222.604,229.78Z" style="fill:rgb(175,175,175);stroke:black;stroke-width:3.29px;"/>
                </g>
                <path d="M262.215,203.991C262.215,196.402 256.054,190.241 248.465,190.241L220.964,190.241C213.375,190.241 207.214,196.402 207.214,203.991L207.214,287.148C207.214,294.737 213.375,300.899 220.964,300.899L248.465,300.899C256.054,300.899 262.215,294.737 262.215,287.148L262.215,203.991Z" style="fill:rgb(235,235,235);stroke:black;stroke-width:3.08px;"/>
            </g>
        </g>
        <g transform="matrix(1,0,0,1,24.0043,-1.09864)">
            <g id="Conx--female3" serif:id="Conx, female" transform="matrix(1.98875e-17,0.324788,-0.324788,1.98875e-17,507.3,345.988)">
                <g transform="matrix(1,0,0,1,-140.936,-250.193)">
                    <path d="M364.753,478.983C364.753,469.721 357.234,462.202 347.972,462.202L213.007,462.202C203.746,462.202 196.227,469.721 196.227,478.983L196.227,512.543C196.227,521.804 203.746,529.323 213.007,529.323L347.972,529.323C357.234,529.323 364.753,521.804 364.753,512.543L364.753,478.983Z" style="fill:rgb(79,79,79);stroke:black;stroke-width:3.08px;"/>
                </g>
                <path d="M262.215,203.991C262.215,196.402 256.054,190.241 248.465,190.241L220.964,190.241C213.375,190.241 207.214,196.402 207.214,203.991L207.214,287.148C207.214,294.737 213.375,300.899 220.964,300.899L248.465,300.899C256.054,300.899 262.215,294.737 262.215,287.148L262.215,203.991Z" style="fill:rgb(235,235,235);stroke:black;stroke-width:3.08px;"/>
            </g>
            <g transform="matrix(1,0,0,1,165.283,-266.968)">
                <path d="M262.259,577.158L262.259,630.913" style="fill:none;stroke:black;stroke-width:10.42px;stroke-linecap:butt;"/>
            </g>
            <g id="Conx--male3" serif:id="Conx, male" transform="matrix(1.98875e-17,-0.324788,0.324788,1.98875e-17,347.784,328.148)">
                <g transform="matrix(1,0,0,1,-140.936,-250.193)">
                    <path d="M364.753,478.983C364.753,469.721 357.234,462.202 347.972,462.202L213.007,462.202C203.746,462.202 196.227,469.721 196.227,478.983L196.227,512.543C196.227,521.804 203.746,529.323 213.007,529.323L347.972,529.323C357.234,529.323 364.753,521.804 364.753,512.543L364.753,478.983Z" style="fill:rgb(79,79,79);stroke:black;stroke-width:3.08px;"/>
                </g>
                <g transform="matrix(1,0,0,0.86666,108.09,32.0847)">
                    <path d="M222.604,229.78C222.604,220.645 215.188,213.229 206.053,213.229L155.575,213.229C146.44,213.229 139.023,220.645 139.023,229.78L139.023,262.882C139.023,272.017 146.44,279.433 155.575,279.433L206.053,279.433C215.188,279.433 222.604,272.017 222.604,262.882L222.604,229.78Z" style="fill:rgb(175,175,175);stroke:black;stroke-width:3.29px;"/>
                </g>
                <path d="M262.215,203.991C262.215,196.402 256.054,190.241 248.465,190.241L220.964,190.241C213.375,190.241 207.214,196.402 207.214,203.991L207.214,287.148C207.214,294.737 213.375,300.899 220.964,300.899L248.465,300.899C256.054,300.899 262.215,294.737 262.215,287.148L262.215,203.991Z" style="fill:rgb(235,235,235);stroke:black;stroke-width:3.08px;"/>
            </g>
        </g>
        <g id="Terminator--male" serif:id="Terminator, male" transform="matrix(-0.324788,3.9775e-17,-3.9775e-17,-0.324788,655.013,281.432)">
            <g transform="matrix(0.498243,-1.22895e-16,-1.22895e-16,1,42.0808,-250.193)">
                <path d="M364.753,478.983C364.753,469.721 349.662,462.202 331.074,462.202L229.906,462.202C211.318,462.202 196.227,469.721 196.227,478.983L196.227,512.543C196.227,521.804 211.318,529.323 229.906,529.323L331.074,529.323C349.662,529.323 364.753,521.804 364.753,512.543L364.753,478.983Z" style="fill:rgb(79,79,79);stroke:black;stroke-width:3.9px;"/>
            </g>
            <g transform="matrix(1,0,0,0.86666,108.09,32.0847)">
                <path d="M222.604,229.78C222.604,220.645 215.188,213.229 206.053,213.229L155.575,213.229C146.44,213.229 139.023,220.645 139.023,229.78L139.023,262.882C139.023,272.017 146.44,279.433 155.575,279.433L206.053,279.433C215.188,279.433 222.604,272.017 222.604,262.882L222.604,229.78Z" style="fill:rgb(175,175,175);stroke:black;stroke-width:3.29px;"/>
            </g>
            <path d="M262.215,203.991C262.215,196.402 256.054,190.241 248.465,190.241L220.964,190.241C213.375,190.241 207.214,196.402 207.214,203.991L207.214,287.148C207.214,294.737 213.375,300.899 220.964,300.899L248.465,300.899C256.054,300.899 262.215,294.737 262.215,287.148L262.215,203.991Z" style="fill:rgb(235,235,235);stroke:black;stroke-width:3.08px;"/>
        </g>
        <g id="T-conx" transform="matrix(0.324788,0,0,-0.324788,357.877,281.41)">
            <g id="Terminator" transform="matrix(1,0,0,1,203.006,0)">
                <g transform="matrix(1,0,0,0.86666,0.363914,32.0847)">
                    <path d="M222.604,229.78C222.604,220.645 215.188,213.229 206.053,213.229L155.575,213.229C146.44,213.229 139.023,220.645 139.023,229.78L139.023,262.882C139.023,272.017 146.44,279.433 155.575,279.433L206.053,279.433C215.188,279.433 222.604,272.017 222.604,262.882L222.604,229.78Z" style="fill:rgb(175,175,175);stroke:black;stroke-width:3.29px;"/>
                </g>
                <path d="M262.215,203.991C262.215,196.402 256.054,190.241 248.465,190.241L220.964,190.241C213.375,190.241 207.214,196.402 207.214,203.991L207.214,287.148C207.214,294.737 213.375,300.899 220.964,300.899L248.465,300.899C256.054,300.899 262.215,294.737 262.215,287.148L262.215,203.991Z" style="fill:rgb(235,235,235);stroke:black;stroke-width:3.08px;"/>
            </g>
            <g id="Terminator1" serif:id="Terminator" transform="matrix(-1,-1.22465e-16,1.22465e-16,-1,857.112,491.139)">
                <path d="M262.215,203.991C262.215,196.402 256.054,190.241 248.465,190.241L220.964,190.241C213.375,190.241 207.214,196.402 207.214,203.991L207.214,287.148C207.214,294.737 213.375,300.899 220.964,300.899L248.465,300.899C256.054,300.899 262.215,294.737 262.215,287.148L262.215,203.991Z" style="fill:rgb(235,235,235);stroke:black;stroke-width:3.08px;"/>
            </g>
            <g id="Terminator2" serif:id="Terminator" transform="matrix(-1.83697e-16,1,-1,-1.83697e-16,775.546,-82.7709)">
                <path d="M262.215,203.991C262.215,196.402 256.054,190.241 248.465,190.241L220.964,190.241C213.375,190.241 207.214,196.402 207.214,203.991L207.214,287.148C207.214,294.737 213.375,300.899 220.964,300.899L248.465,300.899C256.054,300.899 262.215,294.737 262.215,287.148L262.215,203.991Z" style="fill:rgb(235,235,235);stroke:black;stroke-width:3.08px;"/>
            </g>
            <path d="M567.193,207.785C561.911,202.289 563.204,179.444 563.204,179.444L496.913,179.444C496.913,179.444 498.451,201.666 493.169,207.163C487.887,212.66 465.221,212.424 465.221,212.424L465.221,278.715L594.896,278.715L594.896,212.424C594.896,212.424 572.475,213.282 567.193,207.785Z" style="fill:rgb(79,79,79);stroke:black;stroke-width:3.08px;"/>
        </g>
        <g id="T-conx1" serif:id="T-conx" transform="matrix(0.324788,0,0,-0.324788,279.337,281.41)">
            <g id="Terminator3" serif:id="Terminator" transform="matrix(1,0,0,1,203.006,0)">
                <g transform="matrix(1,0,0,0.86666,0.363914,32.0847)">
                    <path d="M222.604,229.78C222.604,220.645 215.188,213.229 206.053,213.229L155.575,213.229C146.44,213.229 139.023,220.645 139.023,229.78L139.023,262.882C139.023,272.017 146.44,279.433 155.575,279.433L206.053,279.433C215.188,279.433 222.604,272.017 222.604,262.882L222.604,229.78Z" style="fill:rgb(175,175,175);stroke:black;stroke-width:3.29px;"/>
                </g>
                <path d="M262.215,203.991C262.215,196.402 256.054,190.241 248.465,190.241L220.964,190.241C213.375,190.241 207.214,196.402 207.214,203.991L207.214,287.148C207.214,294.737 213.375,300.899 220.964,300.899L248.465,300.899C256.054,300.899 262.215,294.737 262.215,287.148L262.215,203.991Z" style="fill:rgb(235,235,235);stroke:black;stroke-width:3.08px;"/>
            </g>
            <g id="Terminator4" serif:id="Terminator" transform="matrix(-1,-1.22465e-16,1.22465e-16,-1,857.112,491.139)">
                <path d="M262.215,203.991C262.215,196.402 256.054,190.241 248.465,190.241L220.964,190.241C213.375,190.241 207.214,196.402 207.214,203.991L207.214,287.148C207.214,294.737 213.375,300.899 220.964,300.899L248.465,300.899C256.054,300.899 262.215,294.737 262.215,287.148L262.215,203.991Z" style="fill:rgb(235,235,235);stroke:black;stroke-width:3.08px;"/>
            </g>
            <g id="Terminator5" serif:id="Terminator" transform="matrix(-1.83697e-16,1,-1,-1.83697e-16,775.546,-82.7709)">
                <path d="M262.215,203.991C262.215,196.402 256.054,190.241 248.465,190.241L220.964,190.241C213.375,190.241 207.214,196.402 207.214,203.991L207.214,287.148C207.214,294.737 213.375,300.899 220.964,300.899L248.465,300.899C256.054,300.899 262.215,294.737 262.215,287.148L262.215,203.991Z" style="fill:rgb(235,235,235);stroke:black;stroke-width:3.08px;"/>
            </g>
            <path d="M567.193,207.785C561.911,202.289 563.204,179.444 563.204,179.444L496.913,179.444C496.913,179.444 498.451,201.666 493.169,207.163C487.887,212.66 465.221,212.424 465.221,212.424L465.221,278.715L594.896,278.715L594.896,212.424C594.896,212.424 572.475,213.282 567.193,207.785Z" style="fill:rgb(79,79,79);stroke:black;stroke-width:3.08px;"/>
        </g>
        <g id="T-conx2" serif:id="T-conx" transform="matrix(0.324788,0,0,-0.324788,200.605,281.41)">
            <g id="Terminator6" serif:id="Terminator" transform="matrix(1,0,0,1,203.006,0)">
                <g transform="matrix(1,0,0,0.86666,0.363914,32.0847)">
                    <path d="M222.604,229.78C222.604,220.645 215.188,213.229 206.053,213.229L155.575,213.229C146.44,213.229 139.023,220.645 139.023,229.78L139.023,262.882C139.023,272.017 146.44,279.433 155.575,279.433L206.053,279.433C215.188,279.433 222.604,272.017 222.604,262.882L222.604,229.78Z" style="fill:rgb(175,175,175);stroke:black;stroke-width:3.29px;"/>
                </g>
                <path d="M262.215,203.991C262.215,196.402 256.054,190.241 248.465,190.241L220.964,190.241C213.375,190.241 207.214,196.402 207.214,203.991L207.214,287.148C207.214,294.737 213.375,300.899 220.964,300.899L248.465,300.899C256.054,300.899 262.215,294.737 262.215,287.148L262.215,203.991Z" style="fill:rgb(235,235,235);stroke:black;stroke-width:3.08px;"/>
            </g>
            <g id="Terminator7" serif:id="Terminator" transform="matrix(-1,-1.22465e-16,1.22465e-16,-1,857.112,491.139)">
                <path d="M262.215,203.991C262.215,196.402 256.054,190.241 248.465,190.241L220.964,190.241C213.375,190.241 207.214,196.402 207.214,203.991L207.214,287.148C207.214,294.737 213.375,300.899 220.964,300.899L248.465,300.899C256.054,300.899 262.215,294.737 262.215,287.148L262.215,203.991Z" style="fill:rgb(235,235,235);stroke:black;stroke-width:3.08px;"/>
            </g>
            <g id="Terminator8" serif:id="Terminator" transform="matrix(-1.83697e-16,1,-1,-1.83697e-16,775.546,-82.7709)">
                <path d="M262.215,203.991C262.215,196.402 256.054,190.241 248.465,190.241L220.964,190.241C213.375,190.241 207.214,196.402 207.214,203.991L207.214,287.148C207.214,294.737 213.375,300.899 220.964,300.899L248.465,300.899C256.054,300.899 262.215,294.737 262.215,287.148L262.215,203.991Z" style="fill:rgb(235,235,235);stroke:black;stroke-width:3.08px;"/>
            </g>
            <path d="M567.193,207.785C561.911,202.289 563.204,179.444 563.204,179.444L496.913,179.444C496.913,179.444 498.451,201.666 493.169,207.163C487.887,212.66 465.221,212.424 465.221,212.424L465.221,278.715L594.896,278.715L594.896,212.424C594.896,212.424 572.475,213.282 567.193,207.785Z" style="fill:rgb(79,79,79);stroke:black;stroke-width:3.08px;"/>
        </g>
        <g id="T-conx3" serif:id="T-conx" transform="matrix(0.324788,0,0,-0.324788,121.775,281.41)">
            <g id="Terminator9" serif:id="Terminator" transform="matrix(1,0,0,1,203.006,0)">
                <g transform="matrix(1,0,0,0.86666,0.363914,32.0847)">
                    <path d="M222.604,229.78C222.604,220.645 215.188,213.229 206.053,213.229L155.575,213.229C146.44,213.229 139.023,220.645 139.023,229.78L139.023,262.882C139.023,272.017 146.44,279.433 155.575,279.433L206.053,279.433C215.188,279.433 222.604,272.017 222.604,262.882L222.604,229.78Z" style="fill:rgb(175,175,175);stroke:black;stroke-width:3.29px;"/>
                </g>
                <path d="M262.215,203.991C262.215,196.402 256.054,190.241 248.465,190.241L220.964,190.241C213.375,190.241 207.214,196.402 207.214,203.991L207.214,287.148C207.214,294.737 213.375,300.899 220.964,300.899L248.465,300.899C256.054,300.899 262.215,294.737 262.215,287.148L262.215,203.991Z" style="fill:rgb(235,235,235);stroke:black;stroke-width:3.08px;"/>
            </g>
            <g id="Terminator10" serif:id="Terminator" transform="matrix(-1,-1.22465e-16,1.22465e-16,-1,857.112,491.139)">
                <path d="M262.215,203.991C262.215,196.402 256.054,190.241 248.465,190.241L220.964,190.241C213.375,190.241 207.214,196.402 207.214,203.991L207.214,287.148C207.214,294.737 213.375,300.899 220.964,300.899L248.465,300.899C256.054,300.899 262.215,294.737 262.215,287.148L262.215,203.991Z" style="fill:rgb(235,235,235);stroke:black;stroke-width:3.08px;"/>
            </g>
            <g id="Terminator11" serif:id="Terminator" transform="matrix(-1.83697e-16,1,-1,-1.83697e-16,775.546,-82.7709)">
                <path d="M262.215,203.991C262.215,196.402 256.054,190.241 248.465,190.241L220.964,190.241C213.375,190.241 207.214,196.402 207.214,203.991L207.214,287.148C207.214,294.737 213.375,300.899 220.964,300.899L248.465,300.899C256.054,300.899 262.215,294.737 262.215,287.148L262.215,203.991Z" style="fill:rgb(235,235,235);stroke:black;stroke-width:3.08px;"/>
            </g>
            <path d="M567.193,207.785C561.911,202.289 563.204,179.444 563.204,179.444L496.913,179.444C496.913,179.444 498.451,201.666 493.169,207.163C487.887,212.66 465.221,212.424 465.221,212.424L465.221,278.715L594.896,278.715L594.896,212.424C594.896,212.424 572.475,213.282 567.193,207.785Z" style="fill:rgb(79,79,79);stroke:black;stroke-width:3.08px;"/>
        </g>
        <g transform="matrix(2.211,0,0,2.211,883.043,456.503)">
            <path d="M3.5,42C3.067,42 2.708,41.858 2.425,41.575C2.142,41.292 2,40.933 2,40.5C2,40.067 2.142,39.708 2.425,39.425C2.708,39.142 3.067,39 3.5,39L44.5,39C44.933,39 45.292,39.142 45.575,39.425C45.858,39.708 46,40.067 46,40.5C46,40.933 45.858,41.292 45.575,41.575C45.292,41.858 44.933,42 44.5,42L3.5,42ZM7,36C6.2,36 5.5,35.7 4.9,35.1C4.3,34.5 4,33.8 4,33L4,9C4,8.2 4.3,7.5 4.9,6.9C5.5,6.3 6.2,6 7,6L41,6C41.8,6 42.5,6.3 43.1,6.9C43.7,7.5 44,8.2 44,9L44,33C44,33.8 43.7,34.5 43.1,35.1C42.5,35.7 41.8,36 41,36L7,36ZM7,33L41,33L41,9L7,9L7,33ZM7,33L7,9L7,33Z" style="fill-rule:nonzero;"/>
        </g>
        <g transform="matrix(2.211,0,0,2.211,852.09,339.789)">
            <path d="M7,36C6.2,36 5.5,35.7 4.9,35.1C4.3,34.5 4,33.8 4,33L4,9C4,8.2 4.3,7.5 4.9,6.9C5.5,6.3 6.2,6 7,6L41,6C41.8,6 42.5,6.3 43.1,6.9C43.7,7.5 44,8.2 44,9L44,33C44,33.8 43.7,34.5 43.1,35.1C42.5,35.7 41.8,36 41,36L7,36ZM7,33L41,33L41,9L7,9L7,33ZM7,33L7,9L7,33Z" style="fill-rule:nonzero;"/>
        </g>
        <g transform="matrix(2.211,0,0,2.211,852.09,588.628)">
            <path d="M13,46C12.2,46 11.5,45.7 10.9,45.1C10.3,44.5 10,43.8 10,43L10,5C10,4.2 10.3,3.5 10.9,2.9C11.5,2.3 12.2,2 13,2L35,2C35.8,2 36.5,2.3 37.1,2.9C37.7,3.5 38,4.2 38,5L38,43C38,43.8 37.7,44.5 37.1,45.1C36.5,45.7 35.8,46 35,46L13,46ZM13,41.5L13,43L35,43L35,41.5L13,41.5ZM13,38.5L35,38.5L35,9.5L13,9.5L13,38.5ZM13,6.5L35,6.5L35,5L13,5L13,6.5ZM13,6.5L13,5L13,6.5ZM13,41.5L13,43L13,41.5Z" style="fill-rule:nonzero;"/>
        </g>
        <g transform="matrix(1,0,0,1,401.612,-134.886)">
            <path d="M345.397,683.822L338.106,676.53C342.133,672.502 345.328,667.467 347.689,661.426C350.05,655.384 351.231,649.655 351.231,644.238C351.231,639.377 350.015,633.856 347.585,627.676C345.154,621.495 341.994,616.252 338.106,611.947L345.397,604.655C350.814,609.794 354.876,616.009 357.585,623.301C360.293,630.592 361.647,637.572 361.647,644.238C361.647,650.766 360.293,657.711 357.585,665.072C354.876,672.433 350.814,678.683 345.397,683.822Z" style="fill-rule:nonzero;"/>
        </g>
        <g transform="matrix(1,0,0,1,405.987,-134.886)">
            <path d="M364.564,702.988L357.272,695.697C364.078,688.891 369.356,680.801 373.106,671.426C376.856,662.051 378.731,652.988 378.731,644.238C378.731,635.488 376.856,626.426 373.106,617.051C369.356,607.676 364.078,599.586 357.272,592.78L364.564,585.488C372.897,593.544 379.078,602.78 383.106,613.197C387.133,623.613 389.147,633.961 389.147,644.238C389.147,654.655 387.238,665.037 383.418,675.384C379.599,685.731 373.314,694.933 364.564,702.988Z" style="fill-rule:nonzero;"/>
        </g>
        <g transform="matrix(0.580929,-0.727028,0.941446,0.752259,-87.473,231.767)">
            <g transform="matrix(0.328146,4.73658e-17,-2.71658e-16,1.2697,158.654,-528.219)">
                <rect x="116.697" y="548.936" width="352.819" height="268.244" style="fill:url(#_Linear1);"/>
            </g>
            <g transform="matrix(1.08142,5.55112e-17,-1.11022e-16,1,-6.19521,0)">
                <rect x="76.091" y="168.763" width="111.758" height="340.589" style="fill:white;"/>
            </g>
        </g>
    </g>
    <defs>
        <linearGradient id="_Linear1" x1="0" y1="0" x2="1" y2="0" gradientUnits="userSpaceOnUse" gradientTransform="matrix(352.819,0,-0,352.819,116.697,683.058)"><stop offset="0" style="stop-color:white;stop-opacity:1"/><stop offset="1" style="stop-color:white;stop-opacity:0"/></linearGradient>
    </defs>
</svg>
