<?xml version="1.0" encoding="UTF-8" standalone="no"?>
<!DOCTYPE svg PUBLIC "-//W3C//DTD SVG 1.1//EN" "http://www.w3.org/Graphics/SVG/1.1/DTD/svg11.dtd">
<svg width="100%" height="100%" viewBox="0 0 1241 875" version="1.1" xmlns="http://www.w3.org/2000/svg" xmlns:xlink="http://www.w3.org/1999/xlink" xml:space="preserve" xmlns:serif="http://www.serif.com/" style="fill-rule:evenodd;clip-rule:evenodd;stroke-linecap:round;stroke-linejoin:round;stroke-miterlimit:1.5;">
    <g transform="matrix(4.16667,0,0,4.16667,620.079,104.788)">
        <g transform="matrix(1,0,0,1,-24,-24)">
            <path d="M24,44C21.2,44 18.583,43.475 16.15,42.425C13.717,41.375 11.6,39.95 9.8,38.15C8,36.35 6.583,34.225 5.55,31.775C4.517,29.325 4,26.7 4,23.9C4,21.1 4.517,18.492 5.55,16.075C6.583,13.658 8,11.55 9.8,9.75C11.6,7.95 13.717,6.542 16.15,5.525C18.583,4.508 21.2,4 24,4C26.8,4 29.417,4.508 31.85,5.525C34.283,6.542 36.4,7.95 38.2,9.75C40,11.55 41.417,13.658 42.45,16.075C43.483,18.492 44,21.1 44,23.9C44,26.7 43.483,29.325 42.45,31.775C41.417,34.225 40,36.35 38.2,38.15C36.4,39.95 34.283,41.375 31.85,42.425C29.417,43.475 26.8,44 24,44ZM24,41.1C25.167,39.9 26.142,38.525 26.925,36.975C27.708,35.425 28.35,33.583 28.85,31.45L19.2,31.45C19.667,33.45 20.292,35.25 21.075,36.85C21.858,38.45 22.833,39.867 24,41.1ZM19.75,40.5C18.917,39.233 18.2,37.867 17.6,36.4C17,34.933 16.5,33.283 16.1,31.45L8.6,31.45C9.867,33.817 11.333,35.675 13,37.025C14.667,38.375 16.917,39.533 19.75,40.5ZM28.3,40.45C30.7,39.683 32.858,38.533 34.775,37C36.692,35.467 38.233,33.617 39.4,31.45L31.95,31.45C31.517,33.25 31.008,34.883 30.425,36.35C29.842,37.817 29.133,39.183 28.3,40.45ZM7.6,28.45L15.55,28.45C15.45,27.55 15.392,26.742 15.375,26.025C15.358,25.308 15.35,24.6 15.35,23.9C15.35,23.067 15.367,22.325 15.4,21.675C15.433,21.025 15.5,20.3 15.6,19.5L7.6,19.5C7.367,20.3 7.208,21.017 7.125,21.65C7.042,22.283 7,23.033 7,23.9C7,24.767 7.042,25.542 7.125,26.225C7.208,26.908 7.367,27.65 7.6,28.45ZM18.65,28.45L29.4,28.45C29.533,27.417 29.617,26.575 29.65,25.925C29.683,25.275 29.7,24.6 29.7,23.9C29.7,23.233 29.683,22.592 29.65,21.975C29.617,21.358 29.533,20.533 29.4,19.5L18.65,19.5C18.517,20.533 18.433,21.358 18.4,21.975C18.367,22.592 18.35,23.233 18.35,23.9C18.35,24.6 18.367,25.275 18.4,25.925C18.433,26.575 18.517,27.417 18.65,28.45ZM32.4,28.45L40.4,28.45C40.633,27.65 40.792,26.908 40.875,26.225C40.958,25.542 41,24.767 41,23.9C41,23.033 40.958,22.283 40.875,21.65C40.792,21.017 40.633,20.3 40.4,19.5L32.45,19.5C32.55,20.667 32.617,21.558 32.65,22.175C32.683,22.792 32.7,23.367 32.7,23.9C32.7,24.633 32.675,25.325 32.625,25.975C32.575,26.625 32.5,27.45 32.4,28.45ZM31.9,16.5L39.4,16.5C38.3,14.2 36.792,12.283 34.875,10.75C32.958,9.217 30.75,8.133 28.25,7.5C29.083,8.733 29.792,10.067 30.375,11.5C30.958,12.933 31.467,14.6 31.9,16.5ZM19.2,16.5L28.9,16.5C28.533,14.733 27.917,13.025 27.05,11.375C26.183,9.725 25.167,8.267 24,7C22.933,7.9 22.033,9.083 21.3,10.55C20.567,12.017 19.867,14 19.2,16.5ZM8.6,16.5L16.15,16.5C16.517,14.7 16.983,13.092 17.55,11.675C18.117,10.258 18.833,8.883 19.7,7.55C17.2,8.183 15.017,9.25 13.15,10.75C11.283,12.25 9.767,14.167 8.6,16.5Z" style="fill-rule:nonzero;"/>
        </g>
    </g>
    <g transform="matrix(4.16667,0,0,4.16667,614.023,413.358)">
        <g transform="matrix(1,0,0,1,-24,-24)">
            <path d="M8.65,42C7.85,42 7.15,41.7 6.55,41.1C5.95,40.5 5.65,39.8 5.65,39L5.65,28.65C5.65,27.85 5.95,27.15 6.55,26.55C7.15,25.95 7.85,25.65 8.65,25.65L31.75,25.65L31.75,16.8L34.75,16.8L34.75,25.65L39.95,25.65C40.75,25.65 41.45,25.95 42.05,26.55C42.65,27.15 42.95,27.85 42.95,28.65L42.95,39C42.95,39.8 42.65,40.5 42.05,41.1C41.45,41.7 40.75,42 39.95,42L8.65,42ZM39.95,39L39.95,28.65L8.65,28.65L8.65,39L39.95,39ZM15.55,33.85C15.55,33.25 15.35,32.75 14.95,32.35C14.55,31.95 14.05,31.75 13.45,31.75C12.85,31.75 12.35,31.95 11.95,32.35C11.55,32.75 11.35,33.25 11.35,33.85C11.35,34.45 11.55,34.95 11.95,35.35C12.35,35.75 12.85,35.95 13.45,35.95C14.05,35.95 14.55,35.75 14.95,35.35C15.35,34.95 15.55,34.45 15.55,33.85ZM22.95,33.85C22.95,33.25 22.75,32.75 22.35,32.35C21.95,31.95 21.45,31.75 20.85,31.75C20.25,31.75 19.75,31.95 19.35,32.35C18.95,32.75 18.75,33.25 18.75,33.85C18.75,34.45 18.95,34.95 19.35,35.35C19.75,35.75 20.25,35.95 20.85,35.95C21.45,35.95 21.95,35.75 22.35,35.35C22.75,34.95 22.95,34.45 22.95,33.85ZM28.25,35.95C28.85,35.95 29.35,35.75 29.75,35.35C30.15,34.95 30.35,34.45 30.35,33.85C30.35,33.25 30.15,32.75 29.75,32.35C29.35,31.95 28.85,31.75 28.25,31.75C27.65,31.75 27.15,31.95 26.75,32.35C26.35,32.75 26.15,33.25 26.15,33.85C26.15,34.45 26.35,34.95 26.75,35.35C27.15,35.75 27.65,35.95 28.25,35.95ZM29.25,14.65L27.2,12.6C28,11.8 28.908,11.167 29.925,10.7C30.942,10.233 32.05,10 33.25,10C34.45,10 35.558,10.233 36.575,10.7C37.592,11.167 38.5,11.8 39.3,12.6L37.25,14.65C36.783,14.183 36.2,13.792 35.5,13.475C34.8,13.158 34.067,13 33.3,13C32.5,13 31.742,13.158 31.025,13.475C30.308,13.792 29.717,14.183 29.25,14.65ZM25,10.4L22.8,8.2C23.9,7.1 25.367,6.125 27.2,5.275C29.033,4.425 31.05,4 33.25,4C35.45,4 37.467,4.425 39.3,5.275C41.133,6.125 42.6,7.1 43.7,8.2L41.5,10.4C40.633,9.433 39.492,8.625 38.075,7.975C36.658,7.325 35.05,7 33.25,7C31.45,7 29.842,7.325 28.425,7.975C27.008,8.625 25.867,9.433 25,10.4ZM8.65,39L8.65,28.65L8.65,39Z" style="fill-rule:nonzero;"/>
        </g>
    </g>
    <g transform="matrix(4.16667,0,0,4.16667,270.881,672.994)">
        <g transform="matrix(1,0,0,1,-24,-24)">
            <path d="M16.5,42L16.5,38L7,38C6.2,38 5.5,37.7 4.9,37.1C4.3,36.5 4,35.8 4,35L4,9C4,8.2 4.3,7.5 4.9,6.9C5.5,6.3 6.2,6 7,6L41,6C41.8,6 42.5,6.3 43.1,6.9C43.7,7.5 44,8.2 44,9L44,35C44,35.8 43.7,36.5 43.1,37.1C42.5,37.7 41.8,38 41,38L31.5,38L31.5,42L16.5,42ZM7,35L41,35L41,9L7,9L7,35ZM7,35L7,9L7,35Z" style="fill-rule:nonzero;"/>
        </g>
    </g>
    <g transform="matrix(4.16667,0,0,4.16667,489.328,748.375)">
        <g transform="matrix(1,0,0,1,-24,-24)">
            <path d="M13,46C12.2,46 11.5,45.7 10.9,45.1C10.3,44.5 10,43.8 10,43L10,5C10,4.2 10.3,3.5 10.9,2.9C11.5,2.3 12.2,2 13,2L35,2C35.8,2 36.5,2.3 37.1,2.9C37.7,3.5 38,4.2 38,5L38,43C38,43.8 37.7,44.5 37.1,45.1C36.5,45.7 35.8,46 35,46L13,46ZM13,41.5L13,43L35,43L35,41.5L13,41.5ZM13,38.5L35,38.5L35,9.5L13,9.5L13,38.5ZM13,6.5L35,6.5L35,5L13,5L13,6.5ZM13,6.5L13,5L13,6.5ZM13,41.5L13,43L13,41.5Z" style="fill-rule:nonzero;"/>
        </g>
    </g>
    <g transform="matrix(4.16667,0,0,4.16667,742.688,755.519)">
        <g transform="matrix(1,0,0,1,-24,-24)">
            <path d="M18.85,29.15L18.85,18.9L29.1,18.9L29.1,29.15L18.85,29.15ZM21.85,26.15L26.1,26.15L26.1,21.9L21.85,21.9L21.85,26.15ZM18,42L18,38L13,38C12.2,38 11.5,37.7 10.9,37.1C10.3,36.5 10,35.8 10,35L10,30L6,30L6,27L10,27L10,20.8L6,20.8L6,17.8L10,17.8L10,12.8C10,12 10.3,11.3 10.9,10.7C11.5,10.1 12.2,9.8 13,9.8L18,9.8L18,6L21,6L21,9.8L27.2,9.8L27.2,6L30.2,6L30.2,9.8L35.2,9.8C36,9.8 36.7,10.1 37.3,10.7C37.9,11.3 38.2,12 38.2,12.8L38.2,17.8L42,17.8L42,20.8L38.2,20.8L38.2,27L42,27L42,30L38.2,30L38.2,35C38.2,35.8 37.9,36.5 37.3,37.1C36.7,37.7 36,38 35.2,38L30.2,38L30.2,42L27.2,42L27.2,38L21,38L21,42L18,42ZM35.2,35L35.2,12.8L13,12.8L13,35L35.2,35Z" style="fill-rule:nonzero;"/>
        </g>
    </g>
    <g id="SH-wg" transform="matrix(7.10879e-17,-1.16095,1.16095,7.10879e-17,802.282,1888.24)">
        <g transform="matrix(0.321809,0,0,0.290277,867.599,57.8116)">
            <path d="M756.002,116.449C756.002,97.136 741.859,81.457 724.439,81.457L457.412,81.457C439.991,81.457 425.848,97.136 425.848,116.449L425.848,450.345C425.848,469.658 439.991,485.338 457.412,485.338L724.439,485.338C741.859,485.338 756.002,469.658 756.002,450.345L756.002,116.449Z" style="fill:white;stroke:black;stroke-width:29.28px;"/>
        </g>
        <g transform="matrix(1.18007,0,0,1.15244,-192.49,-31.8124)">
            <g transform="matrix(1.98875e-17,0.324788,-0.28148,1.72357e-17,1128.81,154.862)">
                <path d="M222.604,229.78C222.604,220.645 215.188,213.229 206.053,213.229L155.575,213.229C146.44,213.229 139.023,220.645 139.023,229.78L139.023,262.882C139.023,272.017 146.44,279.433 155.575,279.433L206.053,279.433C215.188,279.433 222.604,272.017 222.604,262.882L222.604,229.78Z" style="fill:white;stroke:black;stroke-width:25.36px;"/>
            </g>
            <g transform="matrix(2.77002,3.41432e-32,0,0.20255,-1804.43,153.655)">
                <rect x="1027.4" y="241.736" width="12.975" height="17.864" style="fill:white;stroke:black;stroke-width:3.87px;"/>
            </g>
        </g>
    </g>
    <g transform="matrix(1,0,0,1.13603,0,-27.8565)">
        <path d="M620.079,204.788L620.079,300.358" style="fill:none;stroke:black;stroke-width:9.73px;stroke-dasharray:9.73,19.47,0,0;"/>
    </g>
    <path d="M514.023,486.981L358.441,572.994" style="fill:none;stroke:black;stroke-width:10.42px;"/>
    <path d="M569.834,513.358L505.66,627.851" style="fill:none;stroke:black;stroke-width:10.42px;"/>
    <path d="M664.213,513.358L722.913,648.375" style="fill:none;stroke:black;stroke-width:10.42px;"/>
    <path d="M722.913,479.471L916.765,568.334" style="fill:none;stroke:black;stroke-width:10.42px;"/>
    <path d="M547.769,609.978C569.027,570.432 586.219,541.609 602.592,521.91C614.491,507.593 626.05,497.98 638.32,492.375C656.869,483.901 677.165,484.42 703.179,492.571C739.196,503.856 786.81,530.021 857.731,565.585L862.346,556.274L883.406,584.152L848.468,584.273L853.105,574.918C782.853,539.684 735.737,513.688 700.065,502.511C677.034,495.296 659.07,494.348 642.648,501.849C628.741,508.202 616.033,520.453 602.237,539.345C588.665,557.929 574.196,582.812 556.98,614.843L566.159,619.691L537.747,640.026L538.526,605.096L547.769,609.978Z" style="fill:rgb(255,212,22);stroke:black;stroke-width:1px;stroke-linecap:butt;stroke-miterlimit:2;"/>
</svg>
